<?xml version="1.0" encoding="utf-8"?>
<!DOCTYPE svg PUBLIC "-//W3C//DTD SVG 1.1//EN" "http://www.w3.org/Graphics/SVG/1.1/DTD/svg11.dtd">
<svg version="1.1" xmlns="http://www.w3.org/2000/svg" xmlns:xlink="http://www.w3.org/1999/xlink" x="0px" y="0px" viewBox="0 0 256 256" enable-background="new 0 0 256 256" xml:space="preserve">
<g><g><g><path fill="#325be4ff" d="M134.7,9.2c-9,1-17,3.5-26.6,8.2C92,25.2,79.5,37.7,71.5,53.8c-6.9,14.2-8.8,24.3-8.8,46.2c0,22.3,1.9,32.7,8.5,46.2c10.2,21,27.8,35.7,51,42.8c6.6,2.1,7.8,2.2,27.6,2.5l20.7,0.3l3.3,8.8c3.3,9.1,5.9,12.6,10.6,14.4c4.9,1.9,12.9-0.5,15.9-4.7c0.8-1.1,3.7-8.8,6.6-17.1l5.3-15.1l9-8.9c13-13,20-25.2,23.3-41.5c2.1-10.3,2.1-44.2,0-54.5c-3-14.8-9.9-27.7-20.9-39.2c-11.7-12.3-25.6-20.1-42.5-23.7C174.6,8.9,143.7,8.2,134.7,9.2z M179.1,23.6c20.6,4.3,38,18.1,47,37.3c5.5,11.6,6,14.5,6.4,36.1c0.4,20.4-0.2,26.5-3.2,35.6c-4.7,13.7-14.4,26.9-25.5,34.1c-2.8,1.9-3.1,2.6-8.4,18.6c-3.1,9.2-5.8,16.8-6.2,17c-0.3,0.2-2.6-5.1-5.1-11.7l-4.6-12.1l-24.1-0.2c-22.5-0.2-24.5-0.2-29.7-1.9c-21-6.4-38-22.2-45.1-41.6c-3.7-10.3-4.1-14.4-3.8-37.5l0.3-20.8l2.5-7.4C86,49.9,101,33.9,119,27c10.3-4,13.8-4.4,35.1-4.5C168.7,22.4,175,22.7,179.1,23.6z"/><path fill="#325be4ff" d="M141.1,61.8c0,2.2-0.2,5-0.5,6.4l-0.5,2.4h-9.2c-10.6,0-9.7-0.9-8.8,8.5l0.5,4.7h8.8h8.9v7.8v7.8l-2.9,1.5c-5.7,2.9-12.4,8.5-15.1,12.6c-8.6,13-6.2,27,5.2,30.2c8.4,2.3,23.5-3,32.4-11.4c5-4.9,13.3-15.3,15.2-19.4c0.7-1.4,1.6-2.6,2.2-2.6c1.5,0,4.9,3.1,6.2,5.6c1.6,2.9,1.6,9.2,0,12c-2.7,5.2-10.3,9.7-19.3,11.3c-2.7,0.5-5,0.9-5.1,1.1c-0.2,0.1,1.4,2.5,3.5,5.3c4.3,5.9,4.4,5.9,13.3,3.6c12.1-3.2,19.6-8.8,22.7-17c2.4-6.3,2-16.8-0.8-22.2c-2.3-4.5-7.3-9.1-12.5-11.4c-3-1.3-3.7-2.1-3.4-3.1c0.4-1.1-0.3-1.5-3.6-2.2c-10-1.9-10-1.9-10.5-0.2c-0.4,1.4-1,1.6-5.2,1.6c-2.6,0-5.5,0.2-6.4,0.5c-1.7,0.5-1.8,0.2-1.8-3.4c0-2.1,0.2-4.9,0.5-6.1l0.5-2.3l8.2-0.5c11.3-0.7,24.5-2.2,25.2-2.8c0.3-0.3,0.3-3.6,0.1-7.4c-0.5-6.7-0.5-6.8-2.4-6.3c-2.9,0.7-17,2.6-24.1,3.2l-6.4,0.5v-5.6c0-5.5,0-5.5-2.1-5.5c-1.2,0-4.5-0.2-7.4-0.5l-5.3-0.5L141.1,61.8L141.1,61.8z M162,108.7c-1.8,3.5-5.4,8.4-6.1,8.4c-0.5,0-0.8-2.1-0.8-4.6c0-5,0-5,6.1-5.4C162.7,107,162.8,107.2,162,108.7z M142.1,119.7c0.3,3.2,0.7,6.3,1,7.1c1,2.7-8.5,4.8-10.9,2.3c-1.7-1.6-1.6-3.8,0.4-7.9c1.6-3.3,7.2-8.3,8.5-7.5C141.4,113.8,141.9,116.6,142.1,119.7z"/><path fill="#325be4ff" d="M52.9,60.4C32.4,70.1,19.1,85.8,12,108.6c-1.4,4.4-1.6,7.7-1.9,27c-0.3,18.3-0.2,23,0.9,28.3c4.6,22.7,19.3,41.6,40.3,51.8c13.7,6.7,16.9,7.2,41.9,7.5l21.7,0.2l3.6,9.5c1.9,5.3,4,10.3,4.5,11.3c1.1,1.9,5.5,3.7,7.6,2.9c3.6-1.3,4.9-3.8,10.4-19.8l5.7-16.2l4.7-3.8c2.6-2.1,5.6-4.7,6.6-5.8l1.9-2h-10.8c-5.9,0-14.2-0.5-18.4-1.2c-37.8-5.7-67.9-35.3-73.9-73c-0.8-4.7-1.2-13-1.2-25.3c0-19.7,0.9-27.5,4.2-37.3C62,56.2,61.8,56.1,52.9,60.4z"/></g></g></g>
</svg>